<svg width="26" height="26" viewBox="0 0 26 26" fill="none" xmlns="http://www.w3.org/2000/svg">
<rect x="0.5" y="0.5" width="25" height="25" rx="12.5" stroke="#44403C"/>
<path d="M12.321 17.179C11.8371 17.179 11.398 17.0878 11.0036 16.9055C10.6091 16.7199 10.2959 16.4531 10.0639 16.1051C9.83191 15.7538 9.71591 15.3295 9.71591 14.8324C9.71591 14.3949 9.80208 14.0402 9.97443 13.7685C10.1468 13.4934 10.3771 13.2779 10.6655 13.1222C10.9538 12.9664 11.272 12.8504 11.62 12.7741C11.9714 12.6946 12.3243 12.6316 12.679 12.5852C13.143 12.5256 13.5192 12.4808 13.8075 12.451C14.0992 12.4179 14.3113 12.3632 14.4439 12.2869C14.5798 12.2107 14.6477 12.0781 14.6477 11.8892V11.8494C14.6477 11.3589 14.5135 10.9777 14.245 10.706C13.9799 10.4342 13.5772 10.2983 13.0369 10.2983C12.4768 10.2983 12.0376 10.4209 11.7195 10.6662C11.4013 10.9115 11.1776 11.1733 11.0483 11.4517L9.93466 11.054C10.1335 10.59 10.3987 10.2287 10.7301 9.97017C11.0649 9.70833 11.4295 9.52604 11.8239 9.4233C12.2216 9.31723 12.6127 9.2642 12.9972 9.2642C13.2424 9.2642 13.5241 9.29403 13.8423 9.35369C14.1638 9.41004 14.4737 9.5277 14.772 9.70668C15.0736 9.88565 15.3239 10.1558 15.5227 10.517C15.7216 10.8783 15.821 11.3622 15.821 11.9688V17H14.6477V15.9659H14.5881C14.5085 16.1316 14.3759 16.3089 14.1903 16.4979C14.0047 16.6868 13.7578 16.8475 13.4496 16.9801C13.1413 17.1127 12.7652 17.179 12.321 17.179ZM12.5 16.125C12.964 16.125 13.3551 16.0339 13.6733 15.8516C13.9948 15.6693 14.2367 15.4339 14.3991 15.1456C14.5649 14.8572 14.6477 14.554 14.6477 14.2358V13.1619C14.598 13.2216 14.4886 13.2763 14.3196 13.326C14.1539 13.3724 13.9616 13.4138 13.7429 13.4503C13.5275 13.4834 13.317 13.5133 13.1115 13.5398C12.9093 13.563 12.7453 13.5829 12.6193 13.5994C12.3144 13.6392 12.0294 13.7038 11.7642 13.7933C11.5024 13.8795 11.2902 14.0104 11.1278 14.1861C10.9688 14.3584 10.8892 14.5937 10.8892 14.892C10.8892 15.2997 11.04 15.608 11.3416 15.8168C11.6465 16.0223 12.0327 16.125 12.5 16.125Z" fill="#44403C"/>
</svg>
