<svg width="27" height="26" viewBox="0 0 27 26" fill="none" xmlns="http://www.w3.org/2000/svg">
<rect x="0.5" y="0.5" width="26" height="25" rx="12.5" stroke="#44403C"/>
<path d="M10.233 17V6.81818H11.4062V10.5767H11.5057C11.5919 10.4441 11.7112 10.2751 11.8636 10.0696C12.0194 9.8608 12.2415 9.67519 12.5298 9.51278C12.8215 9.34706 13.2159 9.2642 13.7131 9.2642C14.3561 9.2642 14.9228 9.42495 15.4134 9.74645C15.9039 10.0679 16.2867 10.5237 16.5618 11.1136C16.8369 11.7036 16.9744 12.3996 16.9744 13.2017C16.9744 14.0104 16.8369 14.7114 16.5618 15.3047C16.2867 15.8946 15.9055 16.352 15.4183 16.6768C14.9311 16.9983 14.3693 17.1591 13.733 17.1591C13.2424 17.1591 12.8497 17.0779 12.5547 16.9155C12.2597 16.7498 12.0327 16.5625 11.8736 16.3537C11.7145 16.1416 11.5919 15.9659 11.5057 15.8267H11.3665V17H10.233ZM11.3864 13.1818C11.3864 13.7585 11.4709 14.2673 11.6399 14.7081C11.8089 15.1456 12.0559 15.4886 12.3807 15.7372C12.7055 15.9825 13.1032 16.1051 13.5739 16.1051C14.0644 16.1051 14.4737 15.9759 14.8018 15.7173C15.1333 15.4555 15.3819 15.1042 15.5476 14.6634C15.7166 14.2192 15.8011 13.7254 15.8011 13.1818C15.8011 12.6449 15.7183 12.161 15.5526 11.7301C15.3902 11.2959 15.1432 10.9529 14.8118 10.701C14.4837 10.4458 14.071 10.3182 13.5739 10.3182C13.0966 10.3182 12.6955 10.4392 12.3707 10.6811C12.0459 10.9197 11.8007 11.2545 11.6349 11.6854C11.4692 12.1129 11.3864 12.6117 11.3864 13.1818Z" fill="#44403C"/>
</svg>
