<svg width="21" height="22" viewBox="0 0 21 22" fill="none" xmlns="http://www.w3.org/2000/svg">
<path d="M19.0025 16.9481L16.2799 4.00357C16.2447 3.8343 16.1764 3.67364 16.0789 3.53085C15.9814 3.38805 15.8567 3.26592 15.7119 3.17148C15.567 3.07703 15.405 3.01213 15.235 2.98051C15.065 2.94889 14.8904 2.95117 14.7213 2.98721L10.8814 3.81244C10.5418 3.88681 10.2452 4.09228 10.0563 4.38415C9.86734 4.67603 9.80128 5.0307 9.87246 5.37104L12.5951 18.3156C12.6558 18.6109 12.8163 18.8763 13.0496 19.0673C13.2829 19.2582 13.5749 19.3629 13.8764 19.3639C13.9696 19.3638 14.0625 19.3539 14.1537 19.3344L17.9936 18.5092C18.3336 18.4346 18.6305 18.2287 18.8194 17.9364C19.0084 17.644 19.0742 17.2888 19.0025 16.9481ZM11.1562 5.10279C11.1562 5.09787 11.1562 5.09541 11.1562 5.09541L14.9953 4.2751L15.2685 5.57693L11.4294 6.40299L11.1562 5.10279ZM11.6993 7.68432L15.54 6.8599L15.814 8.1642L11.9766 8.98943L11.6993 7.68432ZM12.244 10.274L16.0847 9.44881L17.1757 14.6365L13.335 15.4617L12.244 10.274ZM17.7188 17.2262L13.8797 18.0465L13.6065 16.7447L17.4456 15.9186L17.7188 17.2188C17.7188 17.2237 17.7188 17.2262 17.7188 17.2262ZM8.53125 3.61393H4.59375C4.24565 3.61393 3.91181 3.75221 3.66567 3.99835C3.41953 4.24449 3.28125 4.57833 3.28125 4.92643V18.0514C3.28125 18.3995 3.41953 18.7334 3.66567 18.9795C3.91181 19.2256 4.24565 19.3639 4.59375 19.3639H8.53125C8.87935 19.3639 9.21319 19.2256 9.45933 18.9795C9.70547 18.7334 9.84375 18.3995 9.84375 18.0514V4.92643C9.84375 4.57833 9.70547 4.24449 9.45933 3.99835C9.21319 3.75221 8.87935 3.61393 8.53125 3.61393ZM4.59375 4.92643H8.53125V6.23893H4.59375V4.92643ZM4.59375 7.55143H8.53125V15.4264H4.59375V7.55143ZM8.53125 18.0514H4.59375V16.7389H8.53125V18.0514Z" fill="#EEF2FF"/>
</svg>
