<svg width="26" height="26" viewBox="0 0 26 26" fill="none" xmlns="http://www.w3.org/2000/svg">
<rect x="0.5" y="0.5" width="25" height="25" rx="12.5" stroke="#44403C"/>
<path d="M13.1761 17.1591C12.4602 17.1591 11.8438 16.9901 11.3267 16.652C10.8097 16.3139 10.4119 15.8482 10.1335 15.255C9.85511 14.6617 9.71591 13.9839 9.71591 13.2216C9.71591 12.446 9.85843 11.7616 10.1435 11.1683C10.4318 10.5717 10.8329 10.1061 11.3466 9.77131C11.8636 9.43324 12.4669 9.2642 13.1562 9.2642C13.6932 9.2642 14.1771 9.36364 14.608 9.5625C15.0388 9.76136 15.3918 10.0398 15.6669 10.3977C15.942 10.7557 16.1127 11.1733 16.179 11.6506H15.0057C14.9162 11.3026 14.7173 10.9943 14.4091 10.7259C14.1042 10.4541 13.6932 10.3182 13.1761 10.3182C12.7188 10.3182 12.3177 10.4375 11.973 10.6761C11.6316 10.9115 11.3648 11.2446 11.1726 11.6754C10.9837 12.103 10.8892 12.6051 10.8892 13.1818C10.8892 13.7718 10.982 14.2855 11.1676 14.723C11.3565 15.1605 11.6217 15.5002 11.9631 15.7422C12.3078 15.9841 12.7121 16.1051 13.1761 16.1051C13.4811 16.1051 13.7578 16.0521 14.0064 15.946C14.255 15.84 14.4654 15.6875 14.6378 15.4886C14.8101 15.2898 14.9328 15.0511 15.0057 14.7727H16.179C16.1127 15.2235 15.9486 15.6295 15.6868 15.9908C15.4283 16.3487 15.0852 16.6338 14.6577 16.8459C14.2334 17.0547 13.7396 17.1591 13.1761 17.1591Z" fill="#44403C"/>
</svg>
