<svg width="16" height="17" viewBox="0 0 16 17" fill="none" xmlns="http://www.w3.org/2000/svg">
<path d="M13.3538 6.84268L8.35378 11.8427C8.30735 11.8892 8.2522 11.926 8.1915 11.9512C8.13081 11.9764 8.06574 11.9893 8.00003 11.9893C7.93433 11.9893 7.86926 11.9764 7.80856 11.9512C7.74786 11.926 7.69272 11.8892 7.64628 11.8427L2.64628 6.84268C2.55246 6.74886 2.49976 6.62161 2.49976 6.48893C2.49976 6.35624 2.55246 6.229 2.64628 6.13518C2.7401 6.04135 2.86735 5.98865 3.00003 5.98865C3.13272 5.98865 3.25996 6.04135 3.35378 6.13518L8.00003 10.7821L12.6463 6.13518C12.6927 6.08872 12.7479 6.05187 12.8086 6.02673C12.8693 6.00159 12.9343 5.98865 13 5.98865C13.0657 5.98865 13.1308 6.00159 13.1915 6.02673C13.2522 6.05187 13.3073 6.08872 13.3538 6.13518C13.4002 6.18163 13.4371 6.23678 13.4622 6.29748C13.4874 6.35817 13.5003 6.42323 13.5003 6.48893C13.5003 6.55462 13.4874 6.61968 13.4622 6.68037C13.4371 6.74107 13.4002 6.79622 13.3538 6.84268Z" fill="#EEF2FF"/>
</svg>
