<svg width="21" height="22" viewBox="0 0 21 22" fill="none" xmlns="http://www.w3.org/2000/svg">
<path d="M10.5 2.46875C8.81268 2.46875 7.16325 2.9691 5.7603 3.90652C4.35734 4.84395 3.26387 6.17635 2.61816 7.73523C1.97245 9.29411 1.8035 11.0095 2.13268 12.6644C2.46186 14.3193 3.27438 15.8394 4.4675 17.0325C5.66062 18.2256 7.18074 19.0381 8.83564 19.3673C10.4905 19.6965 12.2059 19.5276 13.7648 18.8818C15.3237 18.2361 16.6561 17.1427 17.5935 15.7397C18.5309 14.3368 19.0313 12.6873 19.0313 11C19.0289 8.7381 18.1293 6.56954 16.5299 4.97013C14.9305 3.37073 12.7619 2.47114 10.5 2.46875ZM14.2456 9.49555L9.6518 14.0893C9.59085 14.1503 9.51848 14.1987 9.43881 14.2317C9.35914 14.2648 9.27375 14.2818 9.1875 14.2818C9.10126 14.2818 9.01587 14.2648 8.9362 14.2317C8.85653 14.1987 8.78415 14.1503 8.72321 14.0893L6.75446 12.1205C6.63132 11.9974 6.56214 11.8304 6.56214 11.6562C6.56214 11.4821 6.63132 11.3151 6.75446 11.192C6.8776 11.0688 7.04461 10.9996 7.21875 10.9996C7.3929 10.9996 7.55991 11.0688 7.68305 11.192L9.1875 12.6972L13.317 8.56695C13.3779 8.50598 13.4503 8.45761 13.53 8.42462C13.6096 8.39162 13.695 8.37464 13.7813 8.37464C13.8675 8.37464 13.9529 8.39162 14.0325 8.42462C14.1122 8.45761 14.1846 8.50598 14.2456 8.56695C14.3065 8.62793 14.3549 8.70031 14.3879 8.77997C14.4209 8.85964 14.4379 8.94502 14.4379 9.03125C14.4379 9.11748 14.4209 9.20286 14.3879 9.28253C14.3549 9.36219 14.3065 9.43457 14.2456 9.49555Z" fill="#34D399"/>
</svg>
