<svg width="27" height="26" viewBox="0 0 27 26" fill="none" xmlns="http://www.w3.org/2000/svg">
<rect x="0.5" y="0.5" width="26" height="25" rx="12.5" stroke="#44403C"/>
<path d="M12.9574 17.1591C12.321 17.1591 11.7592 16.9983 11.272 16.6768C10.7848 16.352 10.4036 15.8946 10.1286 15.3047C9.85346 14.7114 9.71591 14.0104 9.71591 13.2017C9.71591 12.3996 9.85346 11.7036 10.1286 11.1136C10.4036 10.5237 10.7865 10.0679 11.277 9.74645C11.7675 9.42495 12.3343 9.2642 12.9773 9.2642C13.4744 9.2642 13.8672 9.34706 14.1555 9.51278C14.4472 9.67519 14.6693 9.8608 14.8217 10.0696C14.9775 10.2751 15.0985 10.4441 15.1847 10.5767H15.2841V6.81818H16.4574V17H15.3239V15.8267H15.1847C15.0985 15.9659 14.9759 16.1416 14.8168 16.3537C14.6577 16.5625 14.4306 16.7498 14.1357 16.9155C13.8407 17.0779 13.4479 17.1591 12.9574 17.1591ZM13.1165 16.1051C13.5871 16.1051 13.9848 15.9825 14.3097 15.7372C14.6345 15.4886 14.8814 15.1456 15.0504 14.7081C15.2195 14.2673 15.304 13.7585 15.304 13.1818C15.304 12.6117 15.2211 12.1129 15.0554 11.6854C14.8897 11.2545 14.6444 10.9197 14.3196 10.6811C13.9948 10.4392 13.5938 10.3182 13.1165 10.3182C12.6193 10.3182 12.205 10.4458 11.8736 10.701C11.5455 10.9529 11.2985 11.2959 11.1328 11.7301C10.9704 12.161 10.8892 12.6449 10.8892 13.1818C10.8892 13.7254 10.9721 14.2192 11.1378 14.6634C11.3068 15.1042 11.5554 15.4555 11.8835 15.7173C12.215 15.9759 12.6259 16.1051 13.1165 16.1051Z" fill="#44403C"/>
</svg>
