<svg width="17" height="16" viewBox="0 0 17 16" fill="none" xmlns="http://www.w3.org/2000/svg">
<path d="M9 11.25C9 11.3983 8.95602 11.5433 8.8736 11.6667C8.79119 11.79 8.67406 11.8861 8.53701 11.9429C8.39997 11.9997 8.24917 12.0145 8.10368 11.9856C7.9582 11.9566 7.82456 11.8852 7.71967 11.7803C7.61478 11.6754 7.54335 11.5418 7.51441 11.3963C7.48548 11.2508 7.50033 11.1 7.55709 10.963C7.61386 10.8259 7.70999 10.7088 7.83333 10.6264C7.95666 10.544 8.10167 10.5 8.25 10.5C8.44892 10.5 8.63968 10.579 8.78033 10.7197C8.92098 10.8603 9 11.0511 9 11.25ZM8.25 4.5C6.87125 4.5 5.75 5.50938 5.75 6.75V7C5.75 7.13261 5.80268 7.25979 5.89645 7.35355C5.99022 7.44732 6.11739 7.5 6.25 7.5C6.38261 7.5 6.50979 7.44732 6.60356 7.35355C6.69732 7.25979 6.75 7.13261 6.75 7V6.75C6.75 6.0625 7.42313 5.5 8.25 5.5C9.07688 5.5 9.75 6.0625 9.75 6.75C9.75 7.4375 9.07688 8 8.25 8C8.11739 8 7.99022 8.05268 7.89645 8.14645C7.80268 8.24021 7.75 8.36739 7.75 8.5V9C7.75 9.13261 7.80268 9.25979 7.89645 9.35355C7.99022 9.44732 8.11739 9.5 8.25 9.5C8.38261 9.5 8.50979 9.44732 8.60356 9.35355C8.69732 9.25979 8.75 9.13261 8.75 9V8.955C9.89 8.74563 10.75 7.83625 10.75 6.75C10.75 5.50938 9.62875 4.5 8.25 4.5ZM14.75 8C14.75 9.28558 14.3688 10.5423 13.6546 11.6112C12.9403 12.6801 11.9252 13.5132 10.7374 14.0052C9.54973 14.4972 8.24279 14.6259 6.98192 14.3751C5.72104 14.1243 4.56285 13.5052 3.65381 12.5962C2.74477 11.6872 2.1257 10.529 1.8749 9.26809C1.62409 8.00721 1.75282 6.70028 2.24479 5.51256C2.73676 4.32484 3.56988 3.30968 4.6388 2.59545C5.70772 1.88122 6.96442 1.5 8.25 1.5C9.97335 1.50182 11.6256 2.18722 12.8442 3.40582C14.0628 4.62441 14.7482 6.27665 14.75 8ZM13.75 8C13.75 6.9122 13.4274 5.84883 12.8231 4.94436C12.2187 4.03989 11.3598 3.33494 10.3548 2.91866C9.34977 2.50238 8.2439 2.39346 7.17701 2.60568C6.11011 2.8179 5.1301 3.34172 4.36092 4.11091C3.59173 4.8801 3.0679 5.86011 2.85568 6.927C2.64347 7.9939 2.75238 9.09977 3.16867 10.1048C3.58495 11.1098 4.2899 11.9687 5.19437 12.5731C6.09884 13.1774 7.16221 13.5 8.25 13.5C9.70819 13.4983 11.1062 12.9184 12.1373 11.8873C13.1684 10.8562 13.7483 9.45818 13.75 8Z" fill="#A8A29E"/>
</svg>
