<svg width="82" height="23" viewBox="0 0 82 23" fill="none" xmlns="http://www.w3.org/2000/svg">
<path d="M9.9618 0.0127442C9.9368 0.0189942 9.78993 0.0408692 9.63368 0.0596192C9.35243 0.0971192 9.13055 0.147119 8.86805 0.237744C8.66805 0.306494 8.05868 0.603369 7.94305 0.690869C7.3868 1.10024 7.20243 1.27212 6.8993 1.66587C6.57118 2.09399 6.0868 2.93149 6.0868 3.07212C6.0868 3.11899 6.15243 3.15337 6.23993 3.15337C6.26805 3.15337 6.4618 3.20962 6.66805 3.27837C6.87118 3.35024 7.0868 3.41899 7.14305 3.43774C7.19618 3.45337 7.24305 3.47837 7.24305 3.49399C7.24305 3.50649 7.2618 3.51899 7.28368 3.51899C7.30243 3.51899 7.4118 3.56274 7.5243 3.61274C8.09305 3.87524 8.2118 3.90649 8.2118 3.79712C8.2118 3.73462 8.5743 3.25962 8.77118 3.06274C8.98993 2.84399 9.24305 2.67212 9.46805 2.58462C9.99305 2.38149 10.6618 2.42524 11.1274 2.69087C11.2087 2.74087 11.2868 2.77837 11.2993 2.77837C11.3493 2.77837 11.7806 3.22837 11.8962 3.39712C12.1931 3.83462 12.3243 4.16587 12.4618 4.80962C12.5149 5.06274 12.5837 5.86899 12.5837 6.24712C12.5837 6.62837 12.5181 7.31587 12.4493 7.65337C12.3431 8.16587 12.3274 8.24087 12.2712 8.49399C12.2399 8.63774 12.2024 8.76899 12.1837 8.78774C12.1493 8.82212 12.0618 8.66274 11.9649 8.37524C11.9274 8.26587 11.8681 8.11899 11.8337 8.04712C11.7337 7.85024 11.4306 7.36899 11.3306 7.25337C11.2837 7.19712 11.2431 7.13774 11.2431 7.11899C11.2431 7.03462 9.97118 5.80962 9.88055 5.80962C9.8743 5.80962 9.82743 5.77524 9.78055 5.73149C9.73368 5.68774 9.68368 5.65337 9.67118 5.65337C9.65555 5.65337 9.56493 5.59087 9.46805 5.51899C9.27118 5.36587 8.81805 5.07524 8.68055 5.00962C8.65555 4.99712 8.57743 4.95024 8.50868 4.90649C8.36493 4.81587 7.9868 4.62212 7.95555 4.62212C7.94305 4.62212 7.84618 4.58149 7.7368 4.53149C7.62743 4.48462 7.48368 4.42212 7.41493 4.39399C7.34618 4.36899 7.23368 4.32524 7.16493 4.30024C6.81493 4.16899 6.50243 4.05962 6.46805 4.05962C6.44618 4.05962 6.28055 4.01587 6.09305 3.96587C5.12743 3.69087 5.04618 3.67837 4.15555 3.67837L3.35243 3.67524L2.9493 3.78774C2.73055 3.85024 2.53368 3.91274 2.5118 3.92837C2.49305 3.94087 2.42118 3.97212 2.35243 3.99399C2.1618 4.05962 1.89305 4.18774 1.7868 4.26899C1.73368 4.30962 1.68055 4.34087 1.66805 4.34087C1.60243 4.34087 1.21493 4.65649 1.02118 4.86899C0.577429 5.34712 0.243054 6.01274 0.0524289 6.79399C0.00242889 7.00962 -0.0194461 7.99399 0.0211789 8.24712C0.0961789 8.70962 0.118054 8.80649 0.221179 9.09399C0.427429 9.66899 0.708679 10.1596 1.1243 10.6815C1.4368 11.0721 1.3993 11.0659 1.72743 10.7565C1.88368 10.6127 2.04305 10.469 2.0868 10.4409C2.13055 10.4127 2.34618 10.244 2.56493 10.0659C2.7868 9.88462 3.0368 9.69399 3.12118 9.63774L3.27743 9.53462L3.06493 9.28149C2.6743 8.81587 2.58993 8.67524 2.45868 8.26274C2.38055 8.00962 2.3743 7.40962 2.45243 7.17524C2.60555 6.70024 2.9243 6.37837 3.40555 6.21587C3.60243 6.15024 3.65555 6.14712 4.27118 6.15962C4.7368 6.16587 4.93993 6.18149 4.96805 6.20962C4.9868 6.22837 5.04618 6.24712 5.09305 6.24712C5.18368 6.24712 5.64618 6.35337 5.75868 6.40337C5.79305 6.41587 5.9118 6.45962 6.0243 6.49712C6.1368 6.53462 6.24305 6.57837 6.25868 6.59087C6.27743 6.60337 6.33368 6.62212 6.38368 6.63462C6.50555 6.66274 7.55555 7.18149 7.75868 7.31274C7.90243 7.40649 8.25243 7.63774 8.4118 7.74712C8.52743 7.82837 8.97743 8.16587 8.99305 8.18462C9.00243 8.19399 9.15555 8.32837 9.3368 8.47837C9.51805 8.63149 9.67118 8.76899 9.67743 8.78462C9.68055 8.80024 9.6618 8.83149 9.63055 8.85337C9.5868 8.88774 9.4118 8.89087 8.8243 8.87837C8.2118 8.86587 8.02118 8.87524 7.80243 8.91587C7.65555 8.94399 7.47118 8.96587 7.38993 8.96587C7.3118 8.96587 7.20868 8.98149 7.15868 9.00024C7.1118 9.01899 6.9868 9.04399 6.88368 9.05962C6.61493 9.10024 6.28993 9.16899 6.07118 9.23149C5.96805 9.25962 5.84305 9.29399 5.78993 9.30962C5.6493 9.34399 5.33368 9.45337 5.0618 9.56274C4.55555 9.76274 3.38993 10.4127 3.12743 10.644C3.0618 10.7002 2.99618 10.7471 2.98055 10.7471C2.96493 10.7471 2.8993 10.794 2.8368 10.8471C2.77118 10.9034 2.65243 10.9971 2.5743 11.0565C2.28993 11.2627 1.38993 12.1971 1.17743 12.5034C0.608679 13.319 0.430554 13.6784 0.149304 14.5784C0.0086789 15.0221 0.0086789 16.2315 0.149304 16.669C0.489929 17.7284 0.902429 18.2846 1.82118 18.9221C2.10555 19.119 2.80243 19.3971 3.19618 19.469C3.6118 19.5471 3.92118 19.5659 4.49305 19.5502C5.13993 19.5346 5.22743 19.519 5.19618 19.4377C5.1868 19.4127 5.1493 19.2846 5.1118 19.1534C4.95243 18.5659 4.87118 18.2002 4.8368 17.944C4.82118 17.8284 4.79305 17.6034 4.77118 17.444L4.73368 17.1565L4.18368 17.144C3.5993 17.1346 3.5493 17.1252 3.26493 16.9565C2.97118 16.7815 2.5868 16.3315 2.5868 16.1596C2.5868 16.1315 2.56493 16.0659 2.53993 16.0159C2.4743 15.8909 2.4743 15.2565 2.53993 15.1002C2.56493 15.0409 2.5868 14.9659 2.5868 14.9346C2.5868 14.9034 2.60868 14.8377 2.63368 14.7909C2.65868 14.7409 2.68055 14.6784 2.68055 14.6534C2.68055 14.6252 2.69618 14.5877 2.71493 14.569C2.73368 14.5502 2.76493 14.5065 2.7868 14.4721C3.05243 14.0065 3.72743 13.3002 4.2618 12.919C4.8993 12.4659 5.34305 12.219 5.96805 11.969C6.67118 11.6877 7.24618 11.5284 7.32118 11.5909C7.3618 11.6252 7.34618 11.7784 7.30555 11.7784C7.29305 11.7784 7.22743 11.8596 7.1618 11.9565C7.09305 12.0565 6.94305 12.2784 6.82118 12.4534C6.70243 12.6252 6.58368 12.8002 6.55868 12.844C6.32743 13.2346 6.24618 13.3971 6.0993 13.7565C6.00555 13.9815 5.93055 14.1909 5.93055 14.219C5.93055 14.2471 5.90868 14.3221 5.88368 14.3815C5.85868 14.444 5.8368 14.5346 5.8368 14.5846C5.8368 14.6315 5.8243 14.6846 5.80555 14.7034C5.77743 14.7315 5.75243 14.8502 5.66493 15.419C5.63993 15.5721 5.60555 15.7846 5.58993 15.8877C5.54618 16.1221 5.5493 17.5221 5.58993 17.7315C5.60868 17.8159 5.63368 17.9721 5.64618 18.0752C5.68055 18.3034 5.73055 18.5159 5.90243 19.1221C6.2118 20.2252 6.93993 21.4159 7.6868 22.0346C8.2493 22.5065 8.72118 22.7377 9.3993 22.8815C9.66805 22.9409 10.3649 23.0065 10.4337 22.9846C10.4587 22.9752 10.6337 22.9534 10.8212 22.9377C11.2774 22.8971 11.6368 22.8065 11.9712 22.6471C12.0681 22.5971 12.1618 22.5596 12.1774 22.5596C12.1899 22.5596 12.3493 22.4627 12.5274 22.344C13.1743 21.9159 13.7524 21.2721 14.0868 20.6065C14.1462 20.4846 14.2024 20.3815 14.2118 20.3721C14.2493 20.3346 14.3368 20.1846 14.3368 20.1534C14.3368 20.1346 14.2993 20.1065 14.2524 20.0877C14.2024 20.0721 14.1243 20.0377 14.0712 20.0159C14.0212 19.9909 13.8993 19.9471 13.8056 19.919C13.7118 19.8877 13.6056 19.844 13.5712 19.819C13.5368 19.7971 13.4837 19.7784 13.4556 19.7784C13.4243 19.7784 13.3743 19.7659 13.3431 19.7502C13.3149 19.7346 13.2274 19.694 13.1493 19.6596C13.0712 19.6252 12.8556 19.5221 12.6681 19.4315C12.2962 19.2534 12.2681 19.2534 12.1774 19.4284C12.1493 19.4815 12.0899 19.5752 12.0431 19.6346C11.9993 19.694 11.9618 19.7502 11.9618 19.7596C11.9618 19.7846 11.8399 19.9315 11.7212 20.0471C11.5962 20.1721 11.2149 20.4034 11.0181 20.4784C10.8368 20.544 10.3181 20.6002 10.1024 20.5752C9.62118 20.5159 9.07743 20.1752 8.7868 19.7471C8.5993 19.4721 8.55868 19.4065 8.45243 19.2065C8.3868 19.0909 8.3368 18.9752 8.3368 18.9534C8.3368 18.9284 8.31805 18.8409 8.29305 18.7596C8.26805 18.6752 8.23368 18.5284 8.21493 18.4346C8.19618 18.3409 8.15868 18.1627 8.13368 18.044C8.10555 17.9221 8.07118 17.6846 8.05555 17.5127C8.03993 17.3409 8.0118 17.0784 7.99618 16.9315C7.97743 16.7534 7.97743 16.5252 7.9993 16.2752C8.01493 16.0627 8.03993 15.7409 8.05555 15.5596C8.09618 15.0002 8.20243 14.4752 8.28993 14.4034C8.33055 14.369 8.3493 14.3909 8.41493 14.5409C8.45868 14.6377 8.49305 14.7377 8.49305 14.7659C8.49305 14.9221 8.94305 15.6877 9.2993 16.1346C9.55868 16.4627 10.1024 17.0096 10.3649 17.2096C10.6868 17.4565 11.0868 17.7471 11.1056 17.7471C11.1306 17.7471 11.3212 17.8846 11.3306 17.9096C11.3368 17.9252 11.3556 17.9346 11.3743 17.9346C11.3899 17.9346 11.4431 17.9596 11.4868 17.994C11.5337 18.0252 11.6899 18.1127 11.8368 18.1877C11.9837 18.2596 12.1243 18.3377 12.1493 18.3565C12.2149 18.4065 13.2056 18.844 13.3212 18.8752C13.3743 18.8877 13.5556 18.9502 13.7274 19.0127C14.5024 19.2971 15.0524 19.419 15.7743 19.4721C16.3149 19.5096 16.9962 19.4784 17.3243 19.4002C18.6462 19.0909 19.6149 18.3627 20.1368 17.2909C20.2743 17.0065 20.3212 16.8784 20.4306 16.4815C20.4837 16.2971 20.4931 16.1565 20.4931 15.5565C20.4931 14.8346 20.4899 14.8127 20.3524 14.369C20.3274 14.2877 20.3056 14.2065 20.3056 14.1846C20.3056 14.1409 20.0368 13.5846 19.9118 13.3752C19.8462 13.2596 19.6993 13.0534 19.5931 12.919C19.5806 12.9002 19.5337 12.8315 19.4931 12.7627C19.4524 12.694 19.4087 12.6315 19.3993 12.6221C19.3587 12.5877 19.1524 12.3221 19.1462 12.294C19.1306 12.2502 19.0462 12.1534 19.0212 12.1534C19.0118 12.1534 18.9618 12.2127 18.9118 12.2846C18.8618 12.3565 18.7649 12.4659 18.6993 12.5284C18.6306 12.5877 18.5243 12.6877 18.4649 12.7471C18.4024 12.8096 18.2556 12.9377 18.1337 13.0315C18.0149 13.1284 17.8962 13.2284 17.8712 13.2565C17.8493 13.2877 17.8118 13.3096 17.7899 13.3096C17.7712 13.3096 17.6712 13.3815 17.5712 13.469C17.4712 13.5534 17.3587 13.6471 17.3181 13.6752C17.2774 13.7002 17.2431 13.7346 17.2431 13.7471C17.2431 13.7627 17.3118 13.8409 17.3962 13.919C17.4837 14.0002 17.5743 14.1127 17.6024 14.1721C17.6274 14.2284 17.6837 14.3159 17.7212 14.3627C17.8118 14.4752 17.9399 14.719 18.0212 14.9346C18.0743 15.0752 18.0868 15.1784 18.0868 15.5034C18.0868 15.7221 18.0743 15.9065 18.0587 15.919C18.0431 15.9284 18.0181 15.9815 18.0087 16.0377C17.9399 16.3471 17.5837 16.7471 17.2462 16.8909C16.8274 17.069 16.0462 17.0721 15.3212 16.9034C14.8118 16.7846 14.5181 16.7034 14.3368 16.6377C14.0399 16.5284 13.8993 16.4752 13.6399 16.3596C13.5743 16.3315 13.5056 16.3096 13.4868 16.3096C13.4368 16.3096 13.1899 16.1659 12.5056 15.7346C12.0274 15.4346 11.5399 15.0721 11.1181 14.7034C10.8243 14.4471 10.7431 14.369 10.7431 14.3409C10.7431 14.2909 10.9212 14.2784 11.8212 14.2752C12.3368 14.2752 12.8774 14.2627 13.0243 14.2471C13.6431 14.1815 13.9306 14.1346 14.3056 14.0284C14.3649 14.0096 14.5337 13.9627 14.6806 13.9221C14.8274 13.8815 15.0368 13.8159 15.1493 13.7784C15.5431 13.6471 16.5181 13.1909 16.6493 13.0752C16.6743 13.0534 16.7462 13.0127 16.8056 12.9815C16.9587 12.9034 17.2087 12.7377 17.5462 12.4909C17.8743 12.2502 18.8368 11.3252 19.1087 10.9877C19.2087 10.8627 19.3118 10.7377 19.3431 10.7065C19.5368 10.4909 20.0149 9.66274 20.1337 9.34087C20.1618 9.26274 20.2118 9.13774 20.2431 9.05962C20.2743 8.98149 20.3243 8.82837 20.3524 8.71587C20.3806 8.60337 20.4181 8.46274 20.4337 8.40337C20.4962 8.16899 20.5368 7.37524 20.4993 7.01587C20.4806 6.82212 20.4524 6.63149 20.4368 6.58774C20.4212 6.54712 20.3837 6.42837 20.3524 6.32524C20.3243 6.22212 20.2712 6.08774 20.2399 6.02524C20.2056 5.96274 20.1806 5.88774 20.1806 5.86274C20.1806 5.83774 20.1712 5.80962 20.1587 5.80337C20.1431 5.79712 20.1056 5.73774 20.0743 5.66899C19.8306 5.16274 19.2556 4.55337 18.7149 4.22837C18.4524 4.06587 18.1556 3.91274 18.0399 3.87524C17.9899 3.85649 17.8618 3.81274 17.7587 3.77524C17.3493 3.62837 16.8149 3.56274 16.0056 3.56274C15.4274 3.55962 15.4087 3.56587 15.4587 3.76587C15.4774 3.83462 15.5056 3.95649 15.5243 4.04399C15.5431 4.12837 15.5712 4.24087 15.5868 4.29399C15.6024 4.34399 15.6306 4.48149 15.6462 4.59712C15.6618 4.71274 15.6837 4.82212 15.6931 4.83774C15.7024 4.85337 15.7274 5.04087 15.7462 5.25337C15.7681 5.46274 15.7899 5.71587 15.8024 5.80962L15.8212 5.97837L16.2118 5.98149C16.7087 5.98774 16.9899 6.05337 17.2962 6.23774C17.6931 6.47837 17.9024 6.78774 18.0274 7.31274C18.0962 7.60024 18.0962 7.60649 18.0431 7.88774C17.9087 8.57837 17.5524 9.16587 16.8618 9.82524C16.3899 10.2752 16.1368 10.4721 15.6806 10.744C15.4993 10.8502 15.3306 10.9502 15.3056 10.9659C15.2399 11.0065 14.7837 11.2284 14.6337 11.2909C14.5649 11.319 14.4837 11.3565 14.4556 11.3721C14.4243 11.3909 14.3806 11.4034 14.3556 11.4034C14.3306 11.4034 14.2712 11.419 14.2212 11.4409C14.1056 11.4877 13.5618 11.619 13.2524 11.6752C13.0774 11.7034 13.0868 11.5659 13.2681 11.3752C13.3774 11.2627 13.5181 11.0721 13.5993 10.919C13.6462 10.8315 13.7118 10.7346 13.7399 10.7002C13.7712 10.6659 13.8056 10.6159 13.8181 10.5909C13.8306 10.5659 13.8556 10.5159 13.8774 10.4815C14.0056 10.269 14.1649 9.97524 14.1712 9.92837C14.1743 9.90024 14.2056 9.83149 14.2399 9.77212C14.2712 9.71587 14.3587 9.51274 14.4306 9.32524C14.5024 9.13462 14.5806 8.93774 14.6024 8.88774C14.6243 8.83462 14.6524 8.75962 14.6618 8.71587C14.6962 8.55024 14.7524 8.35337 14.7931 8.25337C14.8181 8.19712 14.8368 8.11274 14.8368 8.06899C14.8368 8.02524 14.8556 7.91587 14.8806 7.82837C15.0243 7.31587 15.0774 5.86899 14.9743 5.20649C14.8712 4.51274 14.6993 3.77837 14.5462 3.35024C14.4587 3.11274 14.1868 2.50649 14.1337 2.43462C14.1149 2.40962 14.0681 2.32524 14.0243 2.24712C13.8337 1.88462 13.2149 1.18462 12.8181 0.878369C12.3899 0.547119 11.8931 0.300244 11.3368 0.143994C10.9868 0.0439942 10.1899 -0.0310058 9.9618 0.0127442ZM10.6024 9.25962C11.2087 9.36587 11.6931 9.65024 12.0618 10.1221C12.3212 10.4534 12.4868 10.8127 12.5556 11.1846C12.5743 11.2971 12.5962 11.4159 12.6024 11.4502C12.6212 11.544 12.5274 12.1815 12.4681 12.3409C12.2524 12.9409 11.8274 13.3909 11.1806 13.7065C10.8087 13.8846 10.8149 13.8846 10.3056 13.8815C9.88993 13.8815 9.78993 13.8721 9.62118 13.8127C9.25243 13.6846 8.91493 13.4846 8.65555 13.2346C8.50868 13.0971 8.24305 12.7159 8.24305 12.6471C8.24305 12.6221 8.2243 12.5784 8.1993 12.544C8.15555 12.4752 8.0868 12.2565 8.00555 11.9221C7.84618 11.2502 8.18055 10.2846 8.7368 9.81899C9.13055 9.48462 9.53993 9.29399 9.9493 9.25024C10.3056 9.21274 10.3274 9.21274 10.6024 9.25962Z" fill="#EEF2FF"/>
<path d="M10.1243 10.1565C9.89302 10.1815 9.74302 10.2284 9.49614 10.3503C9.36489 10.4159 9.07114 10.769 8.96489 10.9878C8.86177 11.194 8.85864 11.2128 8.85864 11.5753C8.86177 11.9128 8.86802 11.969 8.94302 12.1346C9.07427 12.4221 9.18989 12.5628 9.44614 12.744C9.72427 12.9409 10.2399 13.0409 10.6024 12.9659C10.9961 12.8878 11.4149 12.5659 11.618 12.1846C11.7243 11.9878 11.7274 11.9721 11.7274 11.6221C11.7274 11.1971 11.6961 11.1034 11.4368 10.7534C11.2774 10.5378 10.9586 10.2784 10.8555 10.2784C10.8368 10.2784 10.8055 10.2659 10.7899 10.2534C10.7618 10.2284 10.5555 10.1659 10.4305 10.1409C10.4055 10.1346 10.268 10.144 10.1243 10.1565Z" fill="#EEF2FF"/>
<path d="M36.9376 8.30319C36.9376 10.3348 36.4232 11.8955 35.3943 12.9855C34.3741 14.0667 32.8962 14.6072 30.9605 14.6072H30.0711V21.5391H26.5137V2.41765H31.366C35.0804 2.41765 36.9376 4.3795 36.9376 8.30319ZM30.0711 11.5206H30.7513C31.6232 11.5206 32.2728 11.2808 32.7 10.8013C33.1273 10.3217 33.3409 9.53697 33.3409 8.44706C33.3409 7.44434 33.1447 6.70319 32.7523 6.22363C32.36 5.73535 31.754 5.49121 30.9344 5.49121H30.0711V11.5206Z" fill="#EEF2FF"/>
<path d="M49.9381 14.228C49.9381 16.617 49.4324 18.4786 48.4209 19.8127C47.4095 21.138 46.0231 21.8007 44.2618 21.8007C43.1458 21.8007 42.1605 21.4955 41.306 20.8851C40.4515 20.2748 39.7932 19.3985 39.3311 18.2563C38.8689 17.1053 38.6379 15.7626 38.6379 14.228C38.6379 11.865 39.1392 10.0209 40.142 8.69556C41.1447 7.3615 42.5354 6.69448 44.3141 6.69448C46.0318 6.69448 47.3964 7.37458 48.4079 8.73479C49.428 10.0863 49.9381 11.9173 49.9381 14.228ZM42.1953 14.228C42.1953 15.7451 42.361 16.8917 42.6923 17.6677C43.0237 18.4437 43.5556 18.8318 44.288 18.8318C45.6831 18.8318 46.3806 17.2972 46.3806 14.228C46.3806 12.7021 46.2106 11.5642 45.8705 10.8143C45.5392 10.0558 45.0117 9.67648 44.288 9.67648C43.5556 9.67648 43.0237 10.0558 42.6923 10.8143C42.361 11.5642 42.1953 12.7021 42.1953 14.228Z" fill="#EEF2FF"/>
<path d="M55.8629 21.5391H52.3839V1.18823H55.8629V21.5391Z" fill="#EEF2FF"/>
<path d="M61.1206 21.5391L57.3146 6.96913H60.9244L62.7816 15.4051C62.8601 15.7974 62.9517 16.3729 63.0563 17.1315C63.1696 17.8813 63.2394 18.4219 63.2656 18.7533H63.3179C63.3266 18.4917 63.3615 18.1168 63.4225 17.6285C63.4923 17.1402 63.562 16.6912 63.6318 16.2814C63.7015 15.8715 64.3729 12.7675 65.6459 6.96913H69.2557L65.4367 21.5391H61.1206Z" fill="#EEF2FF"/>
<path d="M81.5369 14.228C81.5369 16.617 81.0311 18.4786 80.0197 19.8127C79.0083 21.138 77.6219 21.8007 75.8606 21.8007C74.7445 21.8007 73.7592 21.4955 72.9047 20.8851C72.0503 20.2748 71.3919 19.3985 70.9298 18.2563C70.4677 17.1053 70.2366 15.7626 70.2366 14.228C70.2366 11.865 70.738 10.0209 71.7407 8.69556C72.7434 7.3615 74.1342 6.69448 75.9129 6.69448C77.6306 6.69448 78.9952 7.37458 80.0066 8.73479C81.0268 10.0863 81.5369 11.9173 81.5369 14.228ZM73.7941 14.228C73.7941 15.7451 73.9598 16.8917 74.2911 17.6677C74.6225 18.4437 75.1543 18.8318 75.8868 18.8318C77.2818 18.8318 77.9794 17.2972 77.9794 14.228C77.9794 12.7021 77.8094 11.5642 77.4693 10.8143C77.138 10.0558 76.6105 9.67648 75.8868 9.67648C75.1543 9.67648 74.6225 10.0558 74.2911 10.8143C73.9598 11.5642 73.7941 12.7021 73.7941 14.228Z" fill="#EEF2FF"/>
</svg>
