<svg width="21" height="23" viewBox="0 0 21 23" fill="none" xmlns="http://www.w3.org/2000/svg">
<path d="M9.9618 0.0127144C9.9368 0.0189629 9.78993 0.0408382 9.63368 0.0595894C9.35243 0.0970879 9.13055 0.147089 8.86805 0.237713C8.66805 0.306463 8.05868 0.603338 7.94305 0.690838C7.3868 1.10021 7.20243 1.27209 6.8993 1.66584C6.57118 2.09396 6.0868 2.93146 6.0868 3.07209C6.0868 3.11896 6.15243 3.15334 6.23993 3.15334C6.26805 3.15334 6.4618 3.20959 6.66805 3.27834C6.87118 3.35021 7.0868 3.41896 7.14305 3.43771C7.19618 3.45334 7.24305 3.47834 7.24305 3.49396C7.24305 3.50646 7.2618 3.51896 7.28368 3.51896C7.30243 3.51896 7.4118 3.56271 7.5243 3.61271C8.09305 3.87521 8.2118 3.90646 8.2118 3.79709C8.2118 3.73459 8.5743 3.25959 8.77118 3.06271C8.98993 2.84396 9.24305 2.67209 9.46805 2.58459C9.99305 2.38146 10.6618 2.42521 11.1274 2.69084C11.2087 2.74084 11.2868 2.77834 11.2993 2.77834C11.3493 2.77834 11.7806 3.22834 11.8962 3.39709C12.1931 3.83459 12.3243 4.16584 12.4618 4.80959C12.5149 5.06271 12.5837 5.86896 12.5837 6.24709C12.5837 6.62834 12.5181 7.31584 12.4493 7.65334C12.3431 8.16584 12.3274 8.24084 12.2712 8.49396C12.2399 8.63771 12.2024 8.76896 12.1837 8.78771C12.1493 8.82209 12.0618 8.66271 11.9649 8.37521C11.9274 8.26584 11.8681 8.11896 11.8337 8.04709C11.7337 7.85021 11.4306 7.36896 11.3306 7.25334C11.2837 7.19709 11.2431 7.13771 11.2431 7.11896C11.2431 7.03459 9.97118 5.80959 9.88055 5.80959C9.8743 5.80959 9.82743 5.77521 9.78055 5.73146C9.73368 5.68771 9.68368 5.65334 9.67118 5.65334C9.65555 5.65334 9.56493 5.59084 9.46805 5.51896C9.27118 5.36584 8.81805 5.07521 8.68055 5.00959C8.65555 4.99709 8.57743 4.95021 8.50868 4.90646C8.36493 4.81584 7.9868 4.62209 7.95555 4.62209C7.94305 4.62209 7.84618 4.58146 7.7368 4.53146C7.62743 4.48459 7.48368 4.42209 7.41493 4.39396C7.34618 4.36896 7.23368 4.32521 7.16493 4.30021C6.81493 4.16896 6.50243 4.05959 6.46805 4.05959C6.44618 4.05959 6.28055 4.01584 6.09305 3.96584C5.12743 3.69084 5.04618 3.67834 4.15555 3.67834L3.35243 3.67521L2.9493 3.78771C2.73055 3.85021 2.53368 3.91271 2.5118 3.92834C2.49305 3.94084 2.42118 3.97209 2.35243 3.99396C2.1618 4.05959 1.89305 4.18771 1.7868 4.26896C1.73368 4.30959 1.68055 4.34084 1.66805 4.34084C1.60243 4.34084 1.21493 4.65646 1.02118 4.86896C0.577429 5.34709 0.243054 6.01271 0.0524289 6.79396C0.00242889 7.00959 -0.0194461 7.99396 0.0211789 8.24709C0.0961789 8.70959 0.118054 8.80646 0.221179 9.09396C0.427429 9.66896 0.708679 10.1596 1.1243 10.6815C1.4368 11.0721 1.3993 11.0658 1.72743 10.7565C1.88368 10.6127 2.04305 10.469 2.0868 10.4408C2.13055 10.4127 2.34618 10.244 2.56493 10.0658C2.7868 9.88459 3.0368 9.69396 3.12118 9.63771L3.27743 9.53459L3.06493 9.28146C2.6743 8.81584 2.58993 8.67521 2.45868 8.26271C2.38055 8.00959 2.3743 7.40959 2.45243 7.17521C2.60555 6.70021 2.9243 6.37834 3.40555 6.21584C3.60243 6.15021 3.65555 6.14709 4.27118 6.15959C4.7368 6.16584 4.93993 6.18146 4.96805 6.20959C4.9868 6.22834 5.04618 6.24709 5.09305 6.24709C5.18368 6.24709 5.64618 6.35334 5.75868 6.40334C5.79305 6.41584 5.9118 6.45959 6.0243 6.49709C6.1368 6.53459 6.24305 6.57834 6.25868 6.59084C6.27743 6.60334 6.33368 6.62209 6.38368 6.63459C6.50555 6.66271 7.55555 7.18146 7.75868 7.31271C7.90243 7.40646 8.25243 7.63771 8.4118 7.74709C8.52743 7.82834 8.97743 8.16584 8.99305 8.18459C9.00243 8.19396 9.15555 8.32834 9.3368 8.47834C9.51805 8.63146 9.67118 8.76896 9.67743 8.78459C9.68055 8.80021 9.6618 8.83146 9.63055 8.85334C9.5868 8.88771 9.4118 8.89084 8.8243 8.87834C8.2118 8.86584 8.02118 8.87521 7.80243 8.91584C7.65555 8.94396 7.47118 8.96584 7.38993 8.96584C7.3118 8.96584 7.20868 8.98146 7.15868 9.00021C7.1118 9.01896 6.9868 9.04396 6.88368 9.05959C6.61493 9.10021 6.28993 9.16896 6.07118 9.23146C5.96805 9.25959 5.84305 9.29396 5.78993 9.30959C5.6493 9.34396 5.33368 9.45334 5.0618 9.56271C4.55555 9.76271 3.38993 10.4127 3.12743 10.644C3.0618 10.7002 2.99618 10.7471 2.98055 10.7471C2.96493 10.7471 2.8993 10.794 2.8368 10.8471C2.77118 10.9033 2.65243 10.9971 2.5743 11.0565C2.28993 11.2627 1.38993 12.1971 1.17743 12.5033C0.608679 13.319 0.430554 13.6783 0.149304 14.5783C0.0086789 15.0221 0.0086789 16.2315 0.149304 16.669C0.489929 17.7283 0.902429 18.2846 1.82118 18.9221C2.10555 19.119 2.80243 19.3971 3.19618 19.469C3.6118 19.5471 3.92118 19.5658 4.49305 19.5502C5.13993 19.5346 5.22743 19.519 5.19618 19.4377C5.1868 19.4127 5.1493 19.2846 5.1118 19.1533C4.95243 18.5658 4.87118 18.2002 4.8368 17.944C4.82118 17.8283 4.79305 17.6033 4.77118 17.444L4.73368 17.1565L4.18368 17.144C3.5993 17.1346 3.5493 17.1252 3.26493 16.9565C2.97118 16.7815 2.5868 16.3315 2.5868 16.1596C2.5868 16.1315 2.56493 16.0658 2.53993 16.0158C2.4743 15.8908 2.4743 15.2565 2.53993 15.1002C2.56493 15.0408 2.5868 14.9658 2.5868 14.9346C2.5868 14.9033 2.60868 14.8377 2.63368 14.7908C2.65868 14.7408 2.68055 14.6783 2.68055 14.6533C2.68055 14.6252 2.69618 14.5877 2.71493 14.569C2.73368 14.5502 2.76493 14.5065 2.7868 14.4721C3.05243 14.0065 3.72743 13.3002 4.2618 12.919C4.8993 12.4658 5.34305 12.219 5.96805 11.969C6.67118 11.6877 7.24618 11.5283 7.32118 11.5908C7.3618 11.6252 7.34618 11.7783 7.30555 11.7783C7.29305 11.7783 7.22743 11.8596 7.1618 11.9565C7.09305 12.0565 6.94305 12.2783 6.82118 12.4533C6.70243 12.6252 6.58368 12.8002 6.55868 12.844C6.32743 13.2346 6.24618 13.3971 6.0993 13.7565C6.00555 13.9815 5.93055 14.1908 5.93055 14.219C5.93055 14.2471 5.90868 14.3221 5.88368 14.3815C5.85868 14.444 5.8368 14.5346 5.8368 14.5846C5.8368 14.6315 5.8243 14.6846 5.80555 14.7033C5.77743 14.7315 5.75243 14.8502 5.66493 15.419C5.63993 15.5721 5.60555 15.7846 5.58993 15.8877C5.54618 16.1221 5.5493 17.5221 5.58993 17.7315C5.60868 17.8158 5.63368 17.9721 5.64618 18.0752C5.68055 18.3033 5.73055 18.5158 5.90243 19.1221C6.2118 20.2252 6.93993 21.4158 7.6868 22.0346C8.2493 22.5065 8.72118 22.7377 9.3993 22.8815C9.66805 22.9408 10.3649 23.0065 10.4337 22.9846C10.4587 22.9752 10.6337 22.9533 10.8212 22.9377C11.2774 22.8971 11.6368 22.8065 11.9712 22.6471C12.0681 22.5971 12.1618 22.5596 12.1774 22.5596C12.1899 22.5596 12.3493 22.4627 12.5274 22.344C13.1743 21.9158 13.7524 21.2721 14.0868 20.6065C14.1462 20.4846 14.2024 20.3815 14.2118 20.3721C14.2493 20.3346 14.3368 20.1846 14.3368 20.1533C14.3368 20.1346 14.2993 20.1065 14.2524 20.0877C14.2024 20.0721 14.1243 20.0377 14.0712 20.0158C14.0212 19.9908 13.8993 19.9471 13.8056 19.919C13.7118 19.8877 13.6056 19.844 13.5712 19.819C13.5368 19.7971 13.4837 19.7783 13.4556 19.7783C13.4243 19.7783 13.3743 19.7658 13.3431 19.7502C13.3149 19.7346 13.2274 19.694 13.1493 19.6596C13.0712 19.6252 12.8556 19.5221 12.6681 19.4315C12.2962 19.2533 12.2681 19.2533 12.1774 19.4283C12.1493 19.4815 12.0899 19.5752 12.0431 19.6346C11.9993 19.694 11.9618 19.7502 11.9618 19.7596C11.9618 19.7846 11.8399 19.9315 11.7212 20.0471C11.5962 20.1721 11.2149 20.4033 11.0181 20.4783C10.8368 20.544 10.3181 20.6002 10.1024 20.5752C9.62118 20.5158 9.07743 20.1752 8.7868 19.7471C8.5993 19.4721 8.55868 19.4065 8.45243 19.2065C8.3868 19.0908 8.3368 18.9752 8.3368 18.9533C8.3368 18.9283 8.31805 18.8408 8.29305 18.7596C8.26805 18.6752 8.23368 18.5283 8.21493 18.4346C8.19618 18.3408 8.15868 18.1627 8.13368 18.044C8.10555 17.9221 8.07118 17.6846 8.05555 17.5127C8.03993 17.3408 8.0118 17.0783 7.99618 16.9315C7.97743 16.7533 7.97743 16.5252 7.9993 16.2752C8.01493 16.0627 8.03993 15.7408 8.05555 15.5596C8.09618 15.0002 8.20243 14.4752 8.28993 14.4033C8.33055 14.369 8.3493 14.3908 8.41493 14.5408C8.45868 14.6377 8.49305 14.7377 8.49305 14.7658C8.49305 14.9221 8.94305 15.6877 9.2993 16.1346C9.55868 16.4627 10.1024 17.0096 10.3649 17.2096C10.6868 17.4565 11.0868 17.7471 11.1056 17.7471C11.1306 17.7471 11.3212 17.8846 11.3306 17.9096C11.3368 17.9252 11.3556 17.9346 11.3743 17.9346C11.3899 17.9346 11.4431 17.9596 11.4868 17.994C11.5337 18.0252 11.6899 18.1127 11.8368 18.1877C11.9837 18.2596 12.1243 18.3377 12.1493 18.3565C12.2149 18.4065 13.2056 18.844 13.3212 18.8752C13.3743 18.8877 13.5556 18.9502 13.7274 19.0127C14.5024 19.2971 15.0524 19.419 15.7743 19.4721C16.3149 19.5096 16.9962 19.4783 17.3243 19.4002C18.6462 19.0908 19.6149 18.3627 20.1368 17.2908C20.2743 17.0065 20.3212 16.8783 20.4306 16.4815C20.4837 16.2971 20.4931 16.1565 20.4931 15.5565C20.4931 14.8346 20.4899 14.8127 20.3524 14.369C20.3274 14.2877 20.3056 14.2065 20.3056 14.1846C20.3056 14.1408 20.0368 13.5846 19.9118 13.3752C19.8462 13.2596 19.6993 13.0533 19.5931 12.919C19.5806 12.9002 19.5337 12.8315 19.4931 12.7627C19.4524 12.694 19.4087 12.6315 19.3993 12.6221C19.3587 12.5877 19.1524 12.3221 19.1462 12.294C19.1306 12.2502 19.0462 12.1533 19.0212 12.1533C19.0118 12.1533 18.9618 12.2127 18.9118 12.2846C18.8618 12.3565 18.7649 12.4658 18.6993 12.5283C18.6306 12.5877 18.5243 12.6877 18.4649 12.7471C18.4024 12.8096 18.2556 12.9377 18.1337 13.0315C18.0149 13.1283 17.8962 13.2283 17.8712 13.2565C17.8493 13.2877 17.8118 13.3096 17.7899 13.3096C17.7712 13.3096 17.6712 13.3815 17.5712 13.469C17.4712 13.5533 17.3587 13.6471 17.3181 13.6752C17.2774 13.7002 17.2431 13.7346 17.2431 13.7471C17.2431 13.7627 17.3118 13.8408 17.3962 13.919C17.4837 14.0002 17.5743 14.1127 17.6024 14.1721C17.6274 14.2283 17.6837 14.3158 17.7212 14.3627C17.8118 14.4752 17.9399 14.719 18.0212 14.9346C18.0743 15.0752 18.0868 15.1783 18.0868 15.5033C18.0868 15.7221 18.0743 15.9065 18.0587 15.919C18.0431 15.9283 18.0181 15.9815 18.0087 16.0377C17.9399 16.3471 17.5837 16.7471 17.2462 16.8908C16.8274 17.069 16.0462 17.0721 15.3212 16.9033C14.8118 16.7846 14.5181 16.7033 14.3368 16.6377C14.0399 16.5283 13.8993 16.4752 13.6399 16.3596C13.5743 16.3315 13.5056 16.3096 13.4868 16.3096C13.4368 16.3096 13.1899 16.1658 12.5056 15.7346C12.0274 15.4346 11.5399 15.0721 11.1181 14.7033C10.8243 14.4471 10.7431 14.369 10.7431 14.3408C10.7431 14.2908 10.9212 14.2783 11.8212 14.2752C12.3368 14.2752 12.8774 14.2627 13.0243 14.2471C13.6431 14.1815 13.9306 14.1346 14.3056 14.0283C14.3649 14.0096 14.5337 13.9627 14.6806 13.9221C14.8274 13.8815 15.0368 13.8158 15.1493 13.7783C15.5431 13.6471 16.5181 13.1908 16.6493 13.0752C16.6743 13.0533 16.7462 13.0127 16.8056 12.9815C16.9587 12.9033 17.2087 12.7377 17.5462 12.4908C17.8743 12.2502 18.8368 11.3252 19.1087 10.9877C19.2087 10.8627 19.3118 10.7377 19.3431 10.7065C19.5368 10.4908 20.0149 9.66271 20.1337 9.34084C20.1618 9.26271 20.2118 9.13771 20.2431 9.05959C20.2743 8.98146 20.3243 8.82834 20.3524 8.71584C20.3806 8.60334 20.4181 8.46271 20.4337 8.40334C20.4962 8.16896 20.5368 7.37521 20.4993 7.01584C20.4806 6.82209 20.4524 6.63146 20.4368 6.58771C20.4212 6.54709 20.3837 6.42834 20.3524 6.32521C20.3243 6.22209 20.2712 6.08771 20.2399 6.02521C20.2056 5.96271 20.1806 5.88771 20.1806 5.86271C20.1806 5.83771 20.1712 5.80959 20.1587 5.80334C20.1431 5.79709 20.1056 5.73771 20.0743 5.66896C19.8306 5.16271 19.2556 4.55334 18.7149 4.22834C18.4524 4.06584 18.1556 3.91271 18.0399 3.87521C17.9899 3.85646 17.8618 3.81271 17.7587 3.77521C17.3493 3.62834 16.8149 3.56271 16.0056 3.56271C15.4274 3.55959 15.4087 3.56584 15.4587 3.76584C15.4774 3.83459 15.5056 3.95646 15.5243 4.04396C15.5431 4.12834 15.5712 4.24084 15.5868 4.29396C15.6024 4.34396 15.6306 4.48146 15.6462 4.59709C15.6618 4.71271 15.6837 4.82209 15.6931 4.83771C15.7024 4.85334 15.7274 5.04084 15.7462 5.25334C15.7681 5.46271 15.7899 5.71584 15.8024 5.80959L15.8212 5.97834L16.2118 5.98146C16.7087 5.98771 16.9899 6.05334 17.2962 6.23771C17.6931 6.47834 17.9024 6.78771 18.0274 7.31271C18.0962 7.60021 18.0962 7.60646 18.0431 7.88771C17.9087 8.57834 17.5524 9.16584 16.8618 9.82521C16.3899 10.2752 16.1368 10.4721 15.6806 10.744C15.4993 10.8502 15.3306 10.9502 15.3056 10.9658C15.2399 11.0065 14.7837 11.2283 14.6337 11.2908C14.5649 11.319 14.4837 11.3565 14.4556 11.3721C14.4243 11.3908 14.3806 11.4033 14.3556 11.4033C14.3306 11.4033 14.2712 11.419 14.2212 11.4408C14.1056 11.4877 13.5618 11.619 13.2524 11.6752C13.0774 11.7033 13.0868 11.5658 13.2681 11.3752C13.3774 11.2627 13.5181 11.0721 13.5993 10.919C13.6462 10.8315 13.7118 10.7346 13.7399 10.7002C13.7712 10.6658 13.8056 10.6158 13.8181 10.5908C13.8306 10.5658 13.8556 10.5158 13.8774 10.4815C14.0056 10.269 14.1649 9.97521 14.1712 9.92834C14.1743 9.90021 14.2056 9.83146 14.2399 9.77209C14.2712 9.71584 14.3587 9.51271 14.4306 9.32521C14.5024 9.13459 14.5806 8.93771 14.6024 8.88771C14.6243 8.83459 14.6524 8.75959 14.6618 8.71584C14.6962 8.55021 14.7524 8.35334 14.7931 8.25334C14.8181 8.19709 14.8368 8.11271 14.8368 8.06896C14.8368 8.02521 14.8556 7.91584 14.8806 7.82834C15.0243 7.31584 15.0774 5.86896 14.9743 5.20646C14.8712 4.51271 14.6993 3.77834 14.5462 3.35021C14.4587 3.11271 14.1868 2.50646 14.1337 2.43459C14.1149 2.40959 14.0681 2.32521 14.0243 2.24709C13.8337 1.88459 13.2149 1.18459 12.8181 0.878338C12.3899 0.547089 11.8931 0.300213 11.3368 0.143963C10.9868 0.0439644 10.1899 -0.0310364 9.9618 0.0127144ZM10.6024 9.25959C11.2087 9.36584 11.6931 9.65021 12.0618 10.1221C12.3212 10.4533 12.4868 10.8127 12.5556 11.1846C12.5743 11.2971 12.5962 11.4158 12.6024 11.4502C12.6212 11.544 12.5274 12.1815 12.4681 12.3408C12.2524 12.9408 11.8274 13.3908 11.1806 13.7065C10.8087 13.8846 10.8149 13.8846 10.3056 13.8815C9.88993 13.8815 9.78993 13.8721 9.62118 13.8127C9.25243 13.6846 8.91493 13.4846 8.65555 13.2346C8.50868 13.0971 8.24305 12.7158 8.24305 12.6471C8.24305 12.6221 8.2243 12.5783 8.1993 12.544C8.15555 12.4752 8.0868 12.2565 8.00555 11.9221C7.84618 11.2502 8.18055 10.2846 8.7368 9.81896C9.13055 9.48459 9.53993 9.29396 9.9493 9.25021C10.3056 9.21271 10.3274 9.21271 10.6024 9.25959Z" fill="#EEF2FF"/>
<path d="M10.1243 10.1564C9.89302 10.1814 9.74302 10.2283 9.49614 10.3502C9.36489 10.4158 9.07114 10.7689 8.96489 10.9877C8.86177 11.1939 8.85864 11.2127 8.85864 11.5752C8.86177 11.9127 8.86802 11.9689 8.94302 12.1345C9.07427 12.422 9.18989 12.5627 9.44614 12.7439C9.72427 12.9408 10.2399 13.0408 10.6024 12.9658C10.9961 12.8877 11.4149 12.5658 11.618 12.1845C11.7243 11.9877 11.7274 11.972 11.7274 11.622C11.7274 11.197 11.6961 11.1033 11.4368 10.7533C11.2774 10.5377 10.9586 10.2783 10.8555 10.2783C10.8368 10.2783 10.8055 10.2658 10.7899 10.2533C10.7618 10.2283 10.5555 10.1658 10.4305 10.1408C10.4055 10.1345 10.268 10.1439 10.1243 10.1564Z" fill="#EEF2FF"/>
</svg>
